<?xml version="1.0" encoding="UTF-8" standalone="no"?>
<svg version="1.1">
  <rect stroke="black" stroke-width="4" fill="#ffffb4" fill-opacity="1" x="0" y="0" width="160" height="280"/>
  <text fill="#808080" font-size="20" text-anchor="middle" x="80" y="148">BR</text>
  <!-- TOP SIDE -->
  <g>
    <circle fill="#0000b2" id="pin:Σ_e" cx="60" cy="0" r="3"/>
    <text fill="#808080" font-size="16" text-anchor="middle" x="60" y="20">Σ_e</text>
  </g>
    <g>
    <circle fill="#0000b2" id="pin:Π_a" cx="80" cy="0" r="3"/>
    <text fill="#808080" font-size="16" text-anchor="middle" x="80" y="20">Π_a</text>
  </g>
  <g>
    <circle fill="#0000b2" id="pin:Π_b" cx="100" cy="0" r="3"/>
    <text fill="#808080" font-size="16" text-anchor="middle" x="100" y="20">Π_b</text>
  </g>
  <!-- BOTTOM SIDE -->
  <g>
    <circle fill="#0000b2" id="pin:$ST" cx="60" cy="280" r="3"/>
    <text fill="#808080" font-size="16" text-anchor="middle" x="60" y="272">$ST</text>
  </g>
  <g>
    <circle fill="#0000b2" id="pin:$RF" cx="100" cy="280" r="3"/>
    <text fill="#808080" font-size="16" text-anchor="middle" x="100" y="272">$RF</text>
  </g>
  <!-- LEFT SIDE -->
  <g>
    <circle fill="#0000b2" id="pin:W_a" cx="0" cy="20" r="3"/>
    <text fill="#808080" font-size="16" x="4" y="26">W_a</text>
  </g>
  <g>
    <circle fill="#0000b2" id="pin:W_c" cx="0" cy="40" r="3"/>
    <text fill="#808080" font-size="16" x="4" y="46">W_c</text>
  </g>
  <g>
    <circle fill="#0000b2" id="pin:A_a" cx="0" cy="60" r="3"/>
    <text fill="#808080" font-size="16" x="4" y="66">A_a</text>
  </g>
  <g>
    <circle fill="#0000b2" id="pin:A_b" cx="0" cy="80" r="3"/>
    <text fill="#808080" font-size="16" x="4" y="86">A_b</text>
  </g>
  <g>
    <circle fill="#0000b2" id="pin:D_a" cx="0" cy="100" r="3"/>
    <text fill="#808080" font-size="16" x="4" y="106">D_a</text>
  </g>
  <g>
    <circle fill="#0000b2" id="pin:D_b" cx="0" cy="120" r="3"/>
    <text fill="#808080" font-size="16" x="4" y="126">D_b</text>
  </g>
  <g>
    <circle fill="#0000b2" id="pin:IM_X" cx="0" cy="140" r="3"/>
    <text fill="#808080" font-size="16" x="4" y="146">IM_X</text>
  </g>
  <g>
    <circle fill="#0000b2" id="pin:IM_LS" cx="0" cy="160" r="3"/>
    <text fill="#808080" font-size="16" x="4" y="166">IM_LS</text>
  </g>
  <g>
    <circle fill="#0000b2" id="pin:Σ_o" cx="0" cy="180" r="3"/>
    <text fill="#808080" font-size="16" x="4" y="186">Σ_o</text>
  </g>
  <g>
    <circle fill="#0000b2" id="pin:J_a" cx="0" cy="240" r="3"/>
    <text fill="#808080" font-size="16" x="4" y="246">J_a</text>
  </g>
  <g>
    <circle fill="#0000b2" id="pin:J_e" cx="0" cy="260" r="3"/>
    <text fill="#808080" font-size="16" x="4" y="266">J_e</text>
  </g>
  <!-- RIGHT SIDE -->
  <g>
    <circle fill="#b20000" id="pin:A_m" cx="160" cy="20" r="3"/>
    <text fill="#808080" font-size="16" text-anchor="end" x="156" y="26">A_m</text>
  </g>
  <g>
    <circle fill="#b20000" id="pin:.W_c" cx="160" cy="40" r="3"/>
    <text fill="#808080" font-size="16" text-anchor="end" x="156" y="46">W_c</text>
  </g>
  <g>
    <circle fill="#b20000" id="pin:.A_a" cx="160" cy="60" r="3"/>
    <text fill="#808080" font-size="16" text-anchor="end" x="156" y="66">A_a</text>
  </g>
  <g>
    <circle fill="#b20000" id="pin:.A_b" cx="160" cy="80" r="3"/>
    <text fill="#808080" font-size="16" text-anchor="end" x="156" y="86">A_b</text>
  </g>
  <g>
    <circle fill="#b20000" id="pin:.D_a" cx="160" cy="100" r="3"/>
    <text fill="#808080" font-size="16" text-anchor="end" x="156" y="106">D_a</text>
  </g>
  <g>
    <circle fill="#b20000" id="pin:.D_b" cx="160" cy="120" r="3"/>
    <text fill="#808080" font-size="16" text-anchor="end" x="156" y="126">D_b</text>
  </g>
  <g>
    <circle fill="#b20000" id="pin:S_d" cx="160" cy="140" r="3"/>
    <text fill="#808080" font-size="16" text-anchor="end" x="156" y="146">S_d</text>
  </g>
  <g>
    <circle fill="#b20000" id="pin:S_e" cx="160" cy="160" r="3"/>
    <text fill="#808080" font-size="16" text-anchor="end" x="156" y="166">S_e</text>
  </g>
  <g>
    <circle fill="#b20000" id="pin:Σ_i" cx="160" cy="180" r="3"/>
    <text fill="#808080" font-size="16" text-anchor="end" x="156" y="186">Σ_i</text>
  </g>
  <g>
    <circle fill="#b20000" id="pin:F_c" cx="160" cy="220" r="3"/>
    <text fill="#808080" font-size="16" text-anchor="end" x="156" y="226">F_c</text>
  </g>
  <g>
    <circle fill="#b20000" id="pin:Φ" cx="160" cy="240" r="3"/>
    <text fill="#808080" font-size="16" text-anchor="end" x="156" y="246">Φ</text>
  </g>
</svg>
