<?xml version="1.0" encoding="UTF-8" standalone="no"?>
<svg version="1.1">
  <rect stroke="black" stroke-width="4" fill="#ffffb4" fill-opacity="1" x="0" y="0" width="160" height="220"/>
  <text fill="#808080" font-size="20" text-anchor="middle" x="80" y="118">ID</text>
  <!-- TOP SIDE -->
  <!-- BOTTOM SIDE -->
  <g>
    <circle fill="#0000b2" id="pin:RD_a" cx="20" cy="220" r="3"/>
    <text fill="#808080" font-size="16" text-anchor="middle" x="20" y="212">RD_a</text>
  </g>
  <g>
    <circle fill="#0000b2" id="pin:RD_b" cx="60" cy="220" r="3"/>
    <text fill="#808080" font-size="16" text-anchor="middle" x="60" y="212">RD_b</text>
  </g>
  <g>
    <circle fill="#0000b2" id="pin:RA_a" cx="100" cy="220" r="3"/>
    <text fill="#808080" font-size="16" text-anchor="middle" x="100" y="212">RA_a</text>
  </g>
  <g>
    <circle fill="#0000b2" id="pin:RA_b" cx="140" cy="220" r="3"/>
    <text fill="#808080" font-size="16" text-anchor="middle" x="140" y="212">RA_b</text>
  </g>
  <!-- LEFT SIDE -->
  <g>
    <circle fill="#0000b2" id="pin:W_a" cx="0" cy="20" r="3"/>
    <text fill="#808080" font-size="16" x="4" y="26">W_a</text>
  </g>
  <g>
    <circle fill="#0000b2" id="pin:W_d" cx="0" cy="40" r="3"/>
    <text fill="#808080" font-size="16" x="4" y="46">W_d</text>
  </g>
  <g>
    <circle fill="#0000b2" id="pin:IM_X" cx="0" cy="60" r="3"/>
    <text fill="#808080" font-size="16" x="4" y="66">IM_X</text>
  </g>
  <g>
    <circle fill="#0000b2" id="pin:Σ_o" cx="0" cy="80" r="3"/>
    <text fill="#808080" font-size="16" x="4" y="86">Σ_o</text>
  </g>
  <g>
    <circle fill="#0000b2" id="pin:H" cx="0" cy="120" r="3"/>
    <text fill="#808080" font-size="16" x="4" y="126">H</text>
  </g>
  <g>
    <circle fill="#0000b2" id="pin:Φ" cx="0" cy="140" r="3"/>
    <text fill="#808080" font-size="16" x="4" y="146">Φ</text>
  </g>
  <g>
    <circle fill="#0000b2" id="pin:N" cx="0" cy="160" r="3"/>
    <text fill="#808080" font-size="16" x="4" y="166">N</text>
  </g>
  <!-- RIGHT SIDE -->
  <g>
    <circle fill="#b20000" id="pin:.W_a" cx="160" cy="20" r="3"/>
    <text fill="#808080" font-size="16" text-anchor="end" x="156" y="26">W_a</text>
  </g>
  <g>
    <circle fill="#b20000" id="pin:W_c" cx="160" cy="40" r="3"/>
    <text fill="#808080" font-size="16" text-anchor="end" x="156" y="46">W_c</text>
  </g>
  <g>
    <circle fill="#b20000" id="pin:A_a" cx="160" cy="60" r="3"/>
    <text fill="#808080" font-size="16" text-anchor="end" x="156" y="66">A_a</text>
  </g>
  <g>
    <circle fill="#b20000" id="pin:A_b" cx="160" cy="80" r="3"/>
    <text fill="#808080" font-size="16" text-anchor="end" x="156" y="86">A_b</text>
  </g>
  <g>
    <circle fill="#b20000" id="pin:D_a" cx="160" cy="100" r="3"/>
    <text fill="#808080" font-size="16" text-anchor="end" x="156" y="106">D_a</text>
  </g>
  <g>
    <circle fill="#b20000" id="pin:D_b" cx="160" cy="120" r="3"/>
    <text fill="#808080" font-size="16" text-anchor="end" x="156" y="126">D_b</text>
  </g>
  <g>
    <circle fill="#b20000" id="pin:.IM_X" cx="160" cy="140" r="3"/>
    <text fill="#808080" font-size="16" text-anchor="end" x="156" y="146">IM_X</text>
  </g>
  <g>
    <circle fill="#b20000" id="pin:IM_LS" cx="160" cy="160" r="3"/>
    <text fill="#808080" font-size="16" text-anchor="end" x="156" y="166">IM_LS</text>
  </g>
  <g>
    <circle fill="#b20000" id="pin:Σ_i" cx="160" cy="180" r="3"/>
    <text fill="#808080" font-size="16" text-anchor="end" x="156" y="186">Σ_i</text>
  </g>
</svg>
