<?xml version="1.0" encoding="UTF-8" standalone="no"?>
<svg version="1.1">
  <rect stroke="black" stroke-width="4" fill="#ffffb4" fill-opacity="1" x="0" y="0" width="140" height="160"/>
  <text fill="#808080" font-size="20" text-anchor="middle" x="70" y="88">DM</text>
  <!-- TOP SIDE -->
  <g>
    <circle fill="#0000b2" id="pin:P_d" cx="40" cy="0" r="3"/>
    <text fill="#808080" font-size="16" text-anchor="middle" x="40" y="20">P_d</text>
  </g>
  <g>
    <circle fill="#0000b2" id="pin:P_a" cx="60" cy="0" r="3"/>
    <text fill="#808080" font-size="16" text-anchor="middle" x="60" y="20">P_a</text>
  </g>
  <g>
    <circle fill="#0000b2" id="pin:Π_a" cx="80" cy="0" r="3"/>
    <text fill="#808080" font-size="16" text-anchor="middle" x="80" y="20">Π_a</text>
  </g>
  <g>
    <circle fill="#0000b2" id="pin:Π_b" cx="100" cy="0" r="3"/>
    <text fill="#808080" font-size="16" text-anchor="middle" x="100" y="20">Π_b</text>
  </g>
  <!-- BOTTOM SIDE -->
  <g>
    <circle fill="#0000b2" id="pin:.W_c" cx="20" cy="160" r="3"/>
    <text fill="#808080" font-size="16" text-anchor="middle" x="20" y="152">W_c</text>
  </g>
  <g>
    <circle fill="#0000b2" id="pin:.D_a" cx="40" cy="160" r="3"/>
    <text fill="#808080" font-size="16" text-anchor="middle" x="40" y="152">D_a</text>
  </g>
  <g>
    <circle fill="#0000b2" id="pin:.D_b" cx="60" cy="160" r="3"/>
    <text fill="#808080" font-size="16" text-anchor="middle" x="60" y="152">D_b</text>
  </g>
  <g>
    <circle fill="#0000b2" id="pin:.A_a" cx="80" cy="160" r="3"/>
    <text fill="#808080" font-size="16" text-anchor="middle" x="80" y="152">A_a</text>
  </g>
  <g>
    <circle fill="#0000b2" id="pin:.A_b" cx="100" cy="160" r="3"/>
    <text fill="#808080" font-size="16" text-anchor="middle" x="100" y="152">A_b</text>
  </g>
  <!-- LEFT SIDE -->
  <g>
    <circle fill="#0000b2" id="pin:A_m" cx="0" cy="20" r="3"/>
    <text fill="#808080" font-size="16" x="4" y="26">A_m</text>
  </g>
  <g>
    <circle fill="#0000b2" id="pin:W_c" cx="0" cy="40" r="3"/>
    <text fill="#808080" font-size="16" x="4" y="46">W_c</text>
  </g>
  <g>
    <circle fill="#0000b2" id="pin:A_a" cx="0" cy="60" r="3"/>
    <text fill="#808080" font-size="16" x="4" y="66">A_a</text>
  </g>
  <g>
    <circle fill="#0000b2" id="pin:A_b" cx="0" cy="80" r="3"/>
    <text fill="#808080" font-size="16" x="4" y="86">A_b</text>
  </g>
  <g>
    <circle fill="#0000b2" id="pin:D_a" cx="0" cy="100" r="3"/>
    <text fill="#808080" font-size="16" x="4" y="106">D_a</text>
  </g>
  <g>
    <circle fill="#0000b2" id="pin:D_b" cx="0" cy="120" r="3"/>
    <text fill="#808080" font-size="16" x="4" y="126">D_b</text>
  </g>
  <!-- RIGHT SIDE --> 
  <g>
    <circle fill="#b20000" id="pin:IO_i" cx="140" cy="40" r="3"/>
    <text fill="#808080" font-size="16" text-anchor="end" x="130" y="46">IO_i</text>
  </g>
  <g>
    <circle fill="#b20000" id="pin:IO_o" cx="140" cy="60" r="3"/>
    <text fill="#808080" font-size="16" text-anchor="end" x="134" y="66">IO_o</text>
  </g>
  <g>
    <circle fill="#b20000" id="pin:IO_a" cx="140" cy="80" r="3"/>
    <text fill="#808080" font-size="16" text-anchor="end" x="134" y="86">IO_a</text>
  </g>
  <g>
    <circle fill="#b20000" id="pin:IO_w" cx="140" cy="100" r="3"/>
    <text fill="#808080" font-size="16" text-anchor="end" x="136" y="106">IO_w</text>
  </g>
  <g>
    <circle fill="#b20000" id="pin:IO_r" cx="140" cy="120" r="3"/>
    <text fill="#808080" font-size="16" text-anchor="end" x="131" y="126">IO_r</text>
  </g>
  <g>
    <circle fill="#b20000" id="pin:Φ" cx="140" cy="140" r="3"/>
    <text fill="#808080" font-size="16" text-anchor="end" x="131" y="146">Φ</text>
  </g>
</svg>
