<?xml version="1.0" encoding="UTF-8" standalone="no"?>
<svg version="1.1">
  <rect stroke="black" stroke-width="4" fill="#ffffb4" fill-opacity="1" x="0" y="0" width="160" height="160"/>
  <text fill="#808080" font-size="20" text-anchor="middle" x="80" y="88">RF</text>
  <!-- TOP SIDE -->
  <g>
    <circle fill="#0000b2" id="pin:RD_a" cx="20" cy="0" r="3"/>
    <text fill="#808080" font-size="16" text-anchor="middle" x="20" y="20">RD_a</text>
  </g>
  <g>
    <circle fill="#0000b2" id="pin:RD_b" cx="60" cy="0" r="3"/>
    <text fill="#808080" font-size="16" text-anchor="middle" x="60" y="20">RD_b</text>
  </g>
  <g>
    <circle fill="#b20000" id="pin:RA_a" cx="100" cy="0" r="3"/>
    <text fill="#808080" font-size="16" text-anchor="middle" x="100" y="20">RA_a</text>
  </g>
  <g>
    <circle fill="#b20000" id="pin:RA_b" cx="140" cy="0" r="3"/>
    <text fill="#808080" font-size="16" text-anchor="middle" x="140" y="20">RA_b</text>
  </g>
  <!-- LEFT SIDE -->
  <g>
    <circle fill="#0000b2" id="pin:Φ" cx="0" cy="40" r="3"/>
    <text fill="#808080" font-size="16" x="4" y="46">Φ</text>
  </g>
  <g>
    <circle fill="#0000b2" id="pin:R_0123" cx="0" cy="80" r="3"/>
    <text fill="#808080" font-size="16" x="4" y="86">R_0123</text>
  </g>
  <g>
    <circle fill="#0000b2" id="pin:R_4567" cx="0" cy="100" r="3"/>
    <text fill="#808080" font-size="16" x="4" y="106">R_4567</text>
  </g>
  <g>
    <circle fill="#0000b2" id="pin:R_89AB" cx="0" cy="120" r="3"/>
    <text fill="#808080" font-size="16" x="4" y="126">R_89AB</text>
  </g>
  <g>
    <circle fill="#0000b2" id="pin:R_CDEF" cx="0" cy="140" r="3"/>
    <text fill="#808080" font-size="16" x="4" y="146">R_CDEF</text>
  </g>
  <!-- RIGHT SIDE -->
  <g>
    <circle fill="#0000b2" id="pin:WE_a" cx="160" cy="40" r="3"/>
    <text fill="#808080" font-size="16" text-anchor="end" x="156" y="46">WE_a</text>
  </g>
  <g>
    <circle fill="#0000b2" id="pin:WE_b" cx="160" cy="60" r="3"/>
    <text fill="#808080" font-size="16" text-anchor="end" x="156" y="66">WE_b</text>
  </g>
  <g>
    <circle fill="#0000b2" id="pin:WD_a" cx="160" cy="80" r="3"/>
    <text fill="#808080" font-size="16" text-anchor="end" x="156" y="86">WD_a</text>
  </g>
  <g>
    <circle fill="#0000b2" id="pin:WD_b" cx="160" cy="100" r="3"/>
    <text fill="#808080" font-size="16" text-anchor="end" x="156" y="106">WD_b</text>
  </g>
  <g>
    <circle fill="#0000b2" id="pin:WA_a" cx="160" cy="120" r="3"/>
    <text fill="#808080" font-size="16" text-anchor="end" x="156" y="126">WA_a</text>
  </g>
  <g>
    <circle fill="#0000b2" id="pin:WA_b" cx="160" cy="140" r="3"/>
    <text fill="#808080" font-size="16" text-anchor="end" x="156" y="146">WA_b</text>
  </g>
</svg>
