<?xml version="1.0" encoding="UTF-8" standalone="no"?>
<svg version="1.1">
  <rect stroke="black" stroke-width="4" fill="#ffffb4" fill-opacity="1" x="0" y="0" width="80" height="420"/>
  <text fill="#808080" font-size="20" text-anchor="middle" x="40" y="208">FW</text>
  <!-- TOP SIDE -->
  <g>
    <circle fill="#0000b2" id="pin:E" cx="20" cy="0" r="3"/>
    <text fill="#808080" font-size="16" text-anchor="middle" x="20" y="20">E</text>
  </g>
  <g>
    <circle fill="#0000b2" id="pin:S" cx="60" cy="0" r="3"/>
    <text fill="#808080" font-size="16" text-anchor="middle" x="60" y="20">S</text>
  </g>
  <!-- BOTTOM SIDE -->
  <g>
    <circle fill="#0000b2" id="pin:Σ_B" cx="20" cy="420" r="3"/>
    <text fill="#808080" font-size="16" text-anchor="middle" x="20" y="412">Σ_B</text>
  </g>
  <g>
    <circle fill="#0000b2" id="pin:Σ_X" cx="60" cy="420" r="3"/>
    <text fill="#808080" font-size="16" text-anchor="middle" x="60" y="412">Σ_X</text>
  </g>
  <!-- LEFT SIDE -->
  <g>
    <circle fill="#0000b2" id="pin:Π_Ba" cx="0" cy="40" r="3"/>
    <text fill="#808080" font-size="16" x="4" y="44">Π_B</text>
  </g>
  <g>
    <circle fill="#0000b2" id="pin:Π_Xa" cx="0" cy="60" r="3"/>
    <text fill="#808080" font-size="16" x="4" y="64">Π_X</text>
  </g>
  <g>
    <circle fill="#0000b2" id="pin:Π_Ma" cx="0" cy="80" r="3"/>
    <text fill="#808080" font-size="16" x="4" y="84">Π_M</text>
  </g>
  <g>
    <circle fill="#0000b2" id="pin:Π_Ra" cx="0" cy="100" r="3"/>
    <text fill="#808080" font-size="16" x="4" y="104">Π_R</text>
  </g>
  
  <g>
    <circle fill="#0000b2" id="pin:A_Ba" cx="0" cy="140" r="3"/>
    <text fill="#808080" font-size="16" x="4" y="144">A_B</text>
  </g>
  <g>
    <circle fill="#0000b2" id="pin:A_Xa" cx="0" cy="160" r="3"/>
    <text fill="#808080" font-size="16" x="4" y="164">A_X</text>
  </g>
  <g>
    <circle fill="#0000b2" id="pin:A_Ma" cx="0" cy="180" r="3"/>
    <text fill="#808080" font-size="16" x="4" y="184">A_M</text>
  </g>
  <g>
    <circle fill="#0000b2" id="pin:A_Ra" cx="0" cy="200" r="3"/>
    <text fill="#808080" font-size="16" x="4" y="204">A_R</text>
  </g>
  
  <g>
    <circle fill="#0000b2" id="pin:D_Ba" cx="0" cy="240" r="3"/>
    <text fill="#808080" font-size="16" x="4" y="244">D_B</text>
  </g>
  <g>
    <circle fill="#0000b2" id="pin:D_Xa" cx="0" cy="260" r="3"/>
    <text fill="#808080" font-size="16" x="4" y="264">D_X</text>
  </g>
  <g>
    <circle fill="#0000b2" id="pin:D_Ma" cx="0" cy="280" r="3"/>
    <text fill="#808080" font-size="16" x="4" y="284">D_M</text>
  </g>
  <g>
    <circle fill="#0000b2" id="pin:D_Ra" cx="0" cy="300" r="3"/>
    <text fill="#808080" font-size="16" x="4" y="304">D_R</text>
  </g>
  
  <g>
    <circle fill="#0000b2" id="pin:F_Ba" cx="0" cy="340" r="3"/>
    <text fill="#808080" font-size="16" x="4" y="344">F_B</text>
  </g>
  <g>
    <circle fill="#0000b2" id="pin:F_Xa" cx="0" cy="360" r="3"/>
    <text fill="#808080" font-size="16" x="4" y="364">F_X</text>
  </g>
  <g>
    <circle fill="#0000b2" id="pin:F_Ma" cx="0" cy="380" r="3"/>
    <text fill="#808080" font-size="16" x="4" y="384">F_M</text>
  </g>
  <!-- RIGHT SIDE -->
  <g>
    <circle fill="#0000b2" id="pin:Π_Bb" cx="80" cy="40" r="3"/>
    <text fill="#808080" font-size="16" text-anchor="end" x="74" y="46">Π_B</text>
  </g>
  <g>
    <circle fill="#0000b2" id="pin:Π_Xb" cx="80" cy="60" r="3"/>
    <text fill="#808080" font-size="16" text-anchor="end" x="74" y="66">Π_X</text>
  </g>
  <g>
    <circle fill="#0000b2" id="pin:Π_Mb" cx="80" cy="80" r="3"/>
    <text fill="#808080" font-size="16" text-anchor="end" x="74" y="86">Π_M</text>
  </g>
  <g>
    <circle fill="#0000b2" id="pin:Π_Rb" cx="80" cy="100" r="3"/>
    <text fill="#808080" font-size="16" text-anchor="end" x="74" y="106">Π_R</text>
  </g>
  
  <g>
    <circle fill="#0000b2" id="pin:A_Bb" cx="80" cy="140" r="3"/>
    <text fill="#808080" font-size="16" text-anchor="end" x="74" y="146">A_B</text>
  </g>
  <g>
    <circle fill="#0000b2" id="pin:A_Xb" cx="80" cy="160" r="3"/>
    <text fill="#808080" font-size="16" text-anchor="end" x="74" y="166">A_X</text>
  </g>
  <g>
    <circle fill="#0000b2" id="pin:A_Mb" cx="80" cy="180" r="3"/>
    <text fill="#808080" font-size="16" text-anchor="end" x="74" y="186">A_M</text>
  </g>
  <g>
    <circle fill="#0000b2" id="pin:A_Rb" cx="80" cy="200" r="3"/>
    <text fill="#808080" font-size="16" text-anchor="end" x="74" y="206">A_R</text>
  </g>
  
  <g>
    <circle fill="#0000b2" id="pin:D_Bb" cx="80" cy="240" r="3"/>
    <text fill="#808080" font-size="16" text-anchor="end" x="74" y="246">D_B</text>
  </g>
  <g>
    <circle fill="#0000b2" id="pin:D_Xb" cx="80" cy="260" r="3"/>
    <text fill="#808080" font-size="16" text-anchor="end" x="74" y="266">D_X</text>
  </g>
  <g>
    <circle fill="#0000b2" id="pin:D_Mb" cx="80" cy="280" r="3"/>
    <text fill="#808080" font-size="16" text-anchor="end" x="74" y="286">D_M</text>
  </g>
  <g>
    <circle fill="#0000b2" id="pin:D_Rb" cx="80" cy="300" r="3"/>
    <text fill="#808080" font-size="16" text-anchor="end" x="74" y="306">D_R</text>
  </g>
  
  <g>
    <circle fill="#0000b2" id="pin:F_Bb" cx="80" cy="340" r="3"/>
    <text fill="#808080" font-size="16" text-anchor="end" x="74" y="346">F_B</text>
  </g>
  <g>
    <circle fill="#0000b2" id="pin:F_Xb" cx="80" cy="360" r="3"/>
    <text fill="#808080" font-size="16" text-anchor="end" x="74" y="366">F_X</text>
  </g>
  <g>
    <circle fill="#0000b2" id="pin:F_Mb" cx="80" cy="380" r="3"/>
    <text fill="#808080" font-size="16" text-anchor="end" x="74" y="386">F_M</text>
  </g>
</svg>
