<?xml version="1.0" encoding="UTF-8" standalone="no"?>
<svg version="1.1">
  <rect stroke="black" stroke-width="4" fill="#ffffb4" fill-opacity="1" x="0" y="0" width="100" height="200"/>
  <text fill="#808080" font-size="20" text-anchor="middle" x="50" y="108">EX</text>
  <!-- TOP SIDE -->
  <g>
    <circle fill="#0000b2" id="pin:Φ" cx="60" cy="0" r="3"/>
    <text fill="#808080" font-size="16" text-anchor="middle" x="60" y="20">Φ</text>
  </g>
  <!-- BOTTOM SIDE -->
  <g>
    <circle fill="#0000b2" id="pin:JE" cx="20" cy="200" r="3"/>
    <text fill="#808080" font-size="16" text-anchor="middle" x="20" y="192">JE</text>
  </g>
  <g>
    <circle fill="#0000b2" id="pin:JA" cx="40" cy="200" r="3"/>
    <text fill="#808080" font-size="16" text-anchor="middle" x="40" y="192">JA</text>
  </g>
  <g>
    <circle fill="#0000b2" id="pin:SP" cx="60" cy="200" r="3"/>
    <text fill="#808080" font-size="16" text-anchor="middle" x="60" y="192">SP</text>
  </g>
  <!-- LEFT SIDE -->
  <g>
    <circle fill="#0000b2" id="pin:WA" cx="0" cy="20" r="3"/>
    <text fill="#808080" font-size="16" x="4" y="26">WA</text>
  </g>
  <g>
    <circle fill="#0000b2" id="pin:C_w" cx="0" cy="40" r="3"/>
    <text fill="#808080" font-size="16" x="4" y="46">C_w</text>
  </g>
  <g>
    <circle fill="#0000b2" id="pin:C_m" cx="0" cy="60" r="3"/>
    <text fill="#808080" font-size="16" x="4" y="66">C_m</text>
  </g>
  <g>
    <circle fill="#0000b2" id="pin:C_x" cx="0" cy="80" r="3"/>
    <text fill="#808080" font-size="16" x="4" y="86">C_x</text>
  </g>
  <g>
    <circle fill="#0000b2" id="pin:IM" cx="0" cy="100" r="3"/>
    <text fill="#808080" font-size="16" x="4" y="106">IM</text>
  </g>
  <g>
    <circle fill="#0000b2" id="pin:A_a" cx="0" cy="120" r="3"/>
    <text fill="#808080" font-size="16" x="4" y="126">A_a</text>
  </g>
  <!-- RIGHT SIDE -->
  <g>
    <circle fill="#b20000" id="pin:.C_w" cx="100" cy="40" r="3"/>
    <text fill="#808080" font-size="16" text-anchor="end" x="96" y="46">C_w</text>
  </g>
  <g>
    <circle fill="#b20000" id="pin:.C_m" cx="100" cy="60" r="3"/>
    <text fill="#808080" font-size="16" text-anchor="end" x="96" y="66">C_m</text>
  </g>
  
  <g>
    <circle fill="#b20000" id="pin:A" cx="100" cy="80" r="3"/>
    <text fill="#808080" font-size="18" text-anchor="end" x="96" y="86">A</text>
  </g>
  <g>
    <circle fill="#b20000" id="pin:D" cx="100" cy="100" r="3"/>
    <text fill="#808080" font-size="18" text-anchor="end" x="96" y="106">D</text>
  </g>
  <g>
    <circle fill="#b20000" id="pin:.D_a" cx="100" cy="120" r="3"/>
    <text fill="#808080" font-size="18" text-anchor="end" x="96" y="126">D_a</text>
  </g>
  <g>
    <circle fill="#0000b2" id="pin:D_a" cx="100" cy="160" r="3"/>
    <text fill="#808080" font-size="16" text-anchor="end" x="96" y="166">D_a</text>
  </g>
  <g>
    <circle fill="#0000b2" id="pin:D_b" cx="100" cy="180" r="3"/>
    <text fill="#808080" font-size="16" text-anchor="end" x="96" y="186">D_b</text>
  </g>
</svg>
