<?xml version="1.0" encoding="UTF-8" standalone="no"?>
<svg version="1.1">
  <rect stroke="black" stroke-width="4" fill="#ffffb4" fill-opacity="1" x="0" y="0" width="100" height="160"/>
  <text fill="#808080" font-size="20" text-anchor="middle" x="50" y="88">FW</text>
  <!-- TOP SIDE -->
  <g>
    <circle fill="#0000b2" id="pin:A_m" cx="40" cy="0" r="3"/>
    <text fill="#808080" font-size="16" text-anchor="middle" x="40" y="20">A_m</text>
  </g>
  <g>
    <circle fill="#0000b2" id="pin:D_m" cx="60" cy="0" r="3"/>
    <text fill="#808080" font-size="16" text-anchor="middle" x="60" y="20">D_m</text>
  </g>
  <g>
    <circle fill="#0000b2" id="pin:W_m" cx="80" cy="0" r="3"/>
    <text fill="#808080" font-size="16" text-anchor="middle" x="80" y="20">W_m</text>
  </g>
  <!-- BOTTOM SIDE -->
  <g>
    <circle fill="#b20000" id="pin:A_w" cx="40" cy="160" r="3"/>
    <text fill="#808080" font-size="16" text-anchor="middle" x="40" y="152">A_w</text>
  </g>
  <g>
    <circle fill="#b20000" id="pin:D_w" cx="60" cy="160" r="3"/>
    <text fill="#808080" font-size="16" text-anchor="middle" x="60" y="152">D_w</text>
  </g>
  <g>
    <circle fill="#b20000" id="pin:W_w" cx="80" cy="160" r="3"/>
    <text fill="#808080" font-size="16" text-anchor="middle" x="80" y="152">W_w</text>
  </g>
  <!-- LEFT SIDE -->
  <g>
    <circle fill="#b20000" id="pin:.D_a" cx="0" cy="20" r="3"/>
    <text fill="#808080" font-size="16" x="4" y="26">D_a</text>
  </g>
  <g>
    <circle fill="#b20000" id="pin:.D_B" cx="0" cy="40" r="3"/>
    <text fill="#808080" font-size="16" x="4" y="46">D_B</text>
  </g>
  <g>
    <circle fill="#0000b2" id="pin:A_a" cx="0" cy="80" r="3"/>
    <text fill="#808080" font-size="16" x="4" y="86">A_a</text>
  </g>
  <g>
    <circle fill="#0000b2" id="pin:A_b" cx="0" cy="100" r="3"/>
    <text fill="#808080" font-size="16" x="4" y="106">A_b</text>
  </g>
  <g>
    <circle fill="#0000b2" id="pin:D_a" cx="0" cy="120" r="3"/>
    <text fill="#808080" font-size="16" x="4" y="126">D_a</text>
  </g>
  <g>
    <circle fill="#0000b2" id="pin:D_b" cx="0" cy="140" r="3"/>
    <text fill="#808080" font-size="16" x="4" y="146">D_b</text>
  </g>
  <!-- RIGHT SIDE -->
  <g>
    <circle fill="#0000b2" id="pin:F_a" cx="100" cy="60" r="3"/>
    <text fill="#808080" font-size="16" text-anchor="end" x="96" y="66">F_a</text>
  </g>
  <g>
    <circle fill="#0000b2" id="pin:F_b" cx="100" cy="100" r="3"/>
    <text fill="#808080" font-size="16" text-anchor="end" x="96" y="106">F_b</text>
  </g>
</svg>
