<?xml version="1.0" encoding="UTF-8" standalone="no"?>
<svg version="1.1">
  <rect stroke="black" stroke-width="4" fill="#ffffb4" fill-opacity="1" x="0" y="0" width="100" height="120"/>
  <text fill="#808080" font-size="20" text-anchor="middle" x="50" y="68">DM</text>
  <!-- TOP SIDE -->
  <g>
    <circle fill="#0000b2" id="pin:Φ" cx="40" cy="0" r="3"/>
    <text fill="#808080" font-size="16" text-anchor="middle" x="40" y="20">Φ</text>
  </g>
  <!-- BOTTOM SIDE -->
  <g>
    <circle fill="#0000b2" id="pin:PA" cx="40" cy="120" r="3"/>
    <text fill="#808080" font-size="16" text-anchor="middle" x="40" y="112">PA</text>
  </g>
  <g>
    <circle fill="#b20000" id="pin:PD" cx="80" cy="120" r="3"/>
    <text fill="#808080" font-size="16" text-anchor="middle" x="80" y="112">PD</text>
  </g>
  <!-- LEFT SIDE -->
  <g>
    <circle fill="#0000b2" id="pin:C_w" cx="0" cy="20" r="3"/>
    <text fill="#808080" font-size="16" x="4" y="26">C_w</text>
  </g>
  <g>
    <circle fill="#0000b2" id="pin:C_m" cx="0" cy="40" r="3"/>
    <text fill="#808080" font-size="16" x="4" y="46">C_m</text>
  </g>
  <g>
    <circle fill="#0000b2" id="pin:A" cx="0" cy="60" r="3"/>
    <text fill="#808080" font-size="16" x="4" y="66">A</text>
  </g>
  <g>
    <circle fill="#0000b2" id="pin:D" cx="0" cy="80" r="3"/>
    <text fill="#808080" font-size="16" x="4" y="86">D</text>
  </g>
  <g>
    <circle fill="#0000b2" id="pin:D_a" cx="0" cy="100" r="3"/>
    <text fill="#808080" font-size="16" x="4" y="106">D_a</text>
  </g>
  <!-- RIGHT SIDE -->
  <g>
    <circle fill="#b20000" id="pin:.C_w" cx="100" cy="20" r="3"/>
    <text fill="#808080" font-size="16" text-anchor="end" x="96" y="26">C_w</text>
  </g>
  <g>
    <circle fill="#b20000" id="pin:.A" cx="100" cy="40" r="3"/>
    <text fill="#808080" font-size="16" text-anchor="end" x="96" y="46">A</text>
  </g>
  <g>
    <circle fill="#b20000" id="pin:.D" cx="100" cy="60" r="3"/>
    <text fill="#808080" font-size="16" text-anchor="end" x="96" y="66">D</text>
  </g>
</svg>
