<?xml version="1.0" encoding="UTF-8" standalone="no"?>
<svg version="1.1">
  <rect stroke="black" stroke-width="4" fill="#ffffb4" fill-opacity="1" x="0" y="0" width="160" height="100"/> 
  <text fill="#808080" font-size="20" text-anchor="middle" x="80" y="58">REG</text>
  <!-- TOP SIDE -->
  <g>
    <circle fill="#0000b2" id="pin:RD_a" cx="20" cy="0" r="3"/>
    <text fill="#808080" font-size="16" text-anchor="middle" x="20" y="20">RD_a</text>
  </g>
  <g>
    <circle fill="#0000b2" id="pin:RD_b" cx="60" cy="0" r="3"/>
    <text fill="#808080" font-size="16" text-anchor="middle" x="60" y="20">RD_b</text>
  </g>
  <g>
    <circle fill="#b20000" id="pin:RA_a" cx="100" cy="0" r="3"/>
    <text fill="#808080" font-size="16" text-anchor="middle" x="100" y="20">RA_a</text>
  </g>
  <g>
    <circle fill="#b20000" id="pin:RA_b" cx="140" cy="0" r="3"/>
    <text fill="#808080" font-size="16" text-anchor="middle" x="140" y="20">RA_b</text>
  </g>
  <!-- BOTTOM SIDE -->
  <g>
    <circle fill="#0000b2" id="pin:R_0" cx="20" cy="100" r="3"/>
    <text fill="#808080" font-size="16" text-anchor="middle" x="20" y="92">R_0</text>
  </g>
  <g>
    <circle fill="#0000b2" id="pin:R_1" cx="40" cy="100" r="3"/>
    <text fill="#808080" font-size="16" text-anchor="middle" x="40" y="92">R_1</text>
  </g>
  <g>
    <circle fill="#b20000" id="pin:R_2" cx="60" cy="100" r="3"/>
    <text fill="#808080" font-size="16" text-anchor="middle" x="60" y="92">R_2</text>
  </g>
  <g>
    <circle fill="#b20000" id="pin:R_3" cx="80" cy="100" r="3"/>
    <text fill="#808080" font-size="16" text-anchor="middle" x="80" y="92">R_3</text>
  </g>
  <!-- LEFT SIDE -->
  <g>
    <circle fill="#0000b2" id="pin:Φ" cx="0" cy="60" r="3"/>
    <text fill="#808080" font-size="16" x="4" y="66">Φ</text>
  </g>
  <!-- RIGHT SIDE -->
  <g>
    <circle fill="#0000b2" id="pin:WA" cx="160" cy="40" r="3"/>
    <text fill="#808080" font-size="16" text-anchor="end" x="156" y="46">WA</text>
  </g>
  <g>
    <circle fill="#0000b2" id="pin:WD" cx="160" cy="60" r="3"/>
    <text fill="#808080" font-size="16" text-anchor="end" x="156" y="66">WD</text>
  </g>
  <g>
    <circle fill="#0000b2" id="pin:WE" cx="160" cy="80" r="3"/>
    <text fill="#808080" font-size="16" text-anchor="end" x="156" y="86">WE</text>
  </g>
</svg>
