<?xml version="1.0" encoding="UTF-8" standalone="no"?>
<svg version="1.1">
  <rect stroke="black" stroke-width="4" fill="#ffffb4" fill-opacity="1" x="0" y="0" width="120" height="140"/>
  <text fill="#808080" font-size="20" text-anchor="middle" x="60" y="78">PLT</text>
  <!-- TOP SIDE -->
  <g>
    <circle fill="#0000b2" id="pin:Φ_IO" cx="40" cy="0" r="3"/>
    <text fill="#808080" font-size="16" text-anchor="middle" x="40" y="20">Φ_IO</text>
  </g>
  <g>
    <circle fill="#0000b2" id="pin:Φ_PX" cx="80" cy="0" r="3"/>
    <text fill="#808080" font-size="16" text-anchor="middle" x="80" y="20">Φ_PX</text>
  </g>
  <!-- BOTTOM SIDE -->
  <g>
    <circle fill="#0000b2" id="pin:M_E" cx="40" cy="140" r="3"/>
    <text fill="#808080" font-size="16" text-anchor="middle" x="40" y="132">M_E</text>
  </g>
  <g>
    <circle fill="#0000b2" id="pin:M_A" cx="60" cy="140" r="3"/>
    <text fill="#808080" font-size="16" text-anchor="middle" x="60" y="132">M_A</text>
  </g>
  <g>
    <circle fill="#0000b2" id="pin:M_I" cx="80" cy="140" r="3"/>
    <text fill="#808080" font-size="16" text-anchor="middle" x="80" y="132">M_I</text>
  </g>
  <g>
    <circle fill="#0000b2" id="pin:M_O" cx="100" cy="140" r="3"/>
    <text fill="#808080" font-size="16" text-anchor="middle" x="100" y="132">M_O</text>
  </g>
  <!-- LEFT SIDE -->
  <g>
    <circle fill="#0000b2" id="pin:S" cx="0" cy="20" r="3"/>
    <text fill="#808080" font-size="16" x="4" y="26">S</text>
  </g>
  <g>
    <circle fill="#0000b2" id="pin:P_X" cx="0" cy="40" r="3"/>
    <text fill="#808080" font-size="16" x="4" y="46">P_X</text>
  </g>
  <g>
    <circle fill="#0000b2" id="pin:P_Y" cx="0" cy="60" r="3"/>
    <text fill="#808080" font-size="16" x="4" y="66">P_Y</text>
  </g>
  <g>
    <circle fill="#0000b2" id="pin:D_A" cx="0" cy="80" r="3"/>
    <text fill="#808080" font-size="16" x="4" y="86">D_A</text>
  </g>
  <g>
    <circle fill="#0000b2" id="pin:D_B" cx="0" cy="100" r="3"/>
    <text fill="#808080" font-size="16" x="4" y="106">D_B</text>
  </g>
  <g>
    <circle fill="#0000b2" id="pin:C" cx="0" cy="120" r="3"/>
    <text fill="#808080" font-size="16" x="4" y="126">C</text>
  </g>
  <!-- RIGHT SIDE -->
  <g>
    <circle fill="#b20000" id="pin:V_R" cx="120" cy="20" r="3"/>
    <text fill="#808080" font-size="16" text-anchor="end" x="116" y="26">V_R</text>
  </g>
  <g>
    <circle fill="#b20000" id="pin:V_G" cx="120" cy="40" r="3"/>
    <text fill="#808080" font-size="16" text-anchor="end" x="116" y="46">V_G</text>
  </g>
  <g>
    <circle fill="#b20000" id="pin:V_B" cx="120" cy="60" r="3"/>
    <text fill="#808080" font-size="16" text-anchor="end" x="116" y="66">V_B</text>
  </g>
  <g>
    <circle fill="#b20000" id="pin:V_H" cx="120" cy="80" r="3"/>
    <text fill="#808080" font-size="16" text-anchor="end" x="116" y="86">V_H</text>
  </g>
  <g>
    <circle fill="#b20000" id="pin:V_V" cx="120" cy="100" r="3"/>
    <text fill="#808080" font-size="16" text-anchor="end" x="116" y="106">V_V</text>
  </g>
</svg>
